<svg width="32" height="101" viewBox="0 0 32 101" fill="none" xmlns="http://www.w3.org/2000/svg">
<path d="M0 8C0 3.58172 3.58172 0 8 0H32V101H8C3.58172 101 0 97.4183 0 93V8Z" fill="#717171"/>
<rect width="20" height="20" rx="10" transform="matrix(-1 0 0 1 26 24)" fill="white"/>
<path d="M17 31L14 34L17 37" stroke="#717171" stroke-width="1.2" stroke-linecap="round"/>
<path d="M17.6719 58.4687C18.7344 58.1562 19.3906 57.2969 19.3906 56.0625C19.3906 54.3125 18.0469 53.125 15.6719 53.125C13.2812 53.125 11.9219 54.2812 11.9219 56.0781C11.9219 57.6953 12.8359 58.6562 14.2656 58.6875L14.2656 56.2344L16.0312 56.2344L16.0312 60.9531L14.625 60.9531C11.6562 60.9531 9.84375 58.9219 9.84375 56.0625C9.84375 52.8906 12.0625 50.7344 15.6406 50.7344C19.3125 50.7344 21.4687 53.0312 21.4687 56.0156C21.4687 58.5625 19.9062 60.5312 17.6719 60.8437L17.6719 58.4687ZM21.3125 65.0156L10 65.0156L10 62.6719L21.3125 62.6719L21.3125 65.0156ZM18.0781 73.0625C18.9687 72.9687 19.5 72.25 19.5 71.1094C19.5 69.9219 18.9531 69.2656 18.2031 69.25C17.3906 69.2344 17.0156 70.0937 16.7969 71.0625L16.5469 72.0781C16.1094 74.0156 15.125 75.4687 13.2344 75.4687C11.1562 75.4687 9.84375 73.8437 9.84375 71.0937C9.84375 68.3594 11.1094 66.6094 13.5312 66.5469L13.5312 68.8281C12.3906 68.9062 11.8125 69.8125 11.8125 71.0625C11.8125 72.2969 12.3906 73.0937 13.2344 73.0937C14 73.0937 14.3594 72.3906 14.6719 71.1562L14.9687 69.9219C15.4375 68.0156 16.3906 66.8437 18.0469 66.8437C20.1094 66.8437 21.4687 68.6562 21.4687 71.125C21.4687 73.625 20.0781 75.2812 18.0781 75.3125L18.0781 73.0625Z" fill="white"/>
</svg>
