<svg width="88" height="58" xmlns="http://www.w3.org/2000/svg" xmlns:xlink="http://www.w3.org/1999/xlink" xml:space="preserve" overflow="hidden"><defs><clipPath id="clip0"><rect x="477" y="203" width="86" height="57"/></clipPath><clipPath id="clip1"><rect x="477" y="203" width="86" height="57"/></clipPath><clipPath id="clip2"><rect x="477" y="203" width="86" height="57"/></clipPath><linearGradient x1="30.4832" y1="12.5006" x2="89.3609" y2="12.5006" gradientUnits="userSpaceOnUse" spreadMethod="pad" id="fill3"><stop offset="0" stop-color="#0BBBEF" stop-opacity="1"/><stop offset="0.4" stop-color="#0BBBEF" stop-opacity="1"/><stop offset="1" stop-color="#4A96D2" stop-opacity="1"/></linearGradient><linearGradient x1="30.4832" y1="5.00602" x2="96.7628" y2="5.00602" gradientUnits="userSpaceOnUse" spreadMethod="pad" id="fill4"><stop offset="0" stop-color="#EC6608" stop-opacity="1"/><stop offset="1" stop-color="#FFCC00" stop-opacity="1"/></linearGradient></defs><g transform="translate(-476 -202)"><g><g clip-path="url(#clip0)"><g clip-path="url(#clip1)"><g clip-path="url(#clip2)"><path d="M7.67169 44.4137 7.67169 45.4361 1.02585 45.4361 1.02585 44.4137 3.70663 44.4137 3.70663 43.1169 4.99091 43.1169 4.99091 44.4137 7.67169 44.4137ZM2.84629 48.092C2.84629 48.8027 3.45725 49.2266 4.34254 49.2266 5.24029 49.2266 5.85125 48.8027 5.85125 48.092 5.85125 47.3813 5.24029 46.9573 4.34254 46.9573 3.45725 46.9573 2.84629 47.3813 2.84629 48.092ZM7.07319 48.092C7.07319 49.3762 5.96347 50.2241 4.34254 50.2241 2.73407 50.2241 1.61188 49.3762 1.61188 48.092 1.61188 46.8202 2.73407 45.9598 4.34254 45.9598 5.96347 45.9598 7.07319 46.8202 7.07319 48.092ZM3.96847 50.9224 3.96847 53.1293 10.2527 53.1293 10.2527 54.1767 2.67172 54.1767 2.67172 50.9224 3.96847 50.9224ZM9.80382 46.7204 11.3998 46.7204 11.3998 47.7803 9.80382 47.7803 9.80382 51.5708 8.51957 51.5708 8.51957 43.1294 9.80382 43.1294 9.80382 46.7204ZM22.6831 48.6406 18.2192 48.6406 18.2192 50.486 21.4611 50.486 21.4611 54.3887 20.1768 54.3887 20.1768 51.5209 13.5185 51.5209 13.5185 50.486 16.9225 50.486 16.9225 48.6406 12.4836 48.6406 12.4836 47.6057 19.8776 47.6057C20.127 46.3962 20.1519 45.486 20.1519 44.6755L13.7554 44.6755 13.7554 43.6406 21.4112 43.6406 21.4112 44.501C21.4112 45.3488 21.4112 46.3214 21.1619 47.6057L22.6831 47.6057 22.6831 48.6406ZM33.692 47.2815 33.1932 48.3164C31.3229 48.0172 29.7893 47.0695 29.0536 45.7728 28.3304 47.082 26.7718 48.0172 24.9015 48.3164L24.4028 47.2815C26.697 46.9573 28.3678 45.5733 28.3678 44.0895L28.3678 43.491 29.7269 43.491 29.7269 44.0895C29.7269 45.5483 31.4227 46.9573 33.692 47.2815ZM34.1284 49.3762 34.1284 50.4236 29.6521 50.4236 29.6521 54.4012 28.3678 54.4012 28.3678 50.4236 23.9539 50.4236 23.9539 49.3762 34.1284 49.3762ZM39.3643 45.3114 39.3643 46.3962C39.3643 48.1418 40.474 50.1368 42.1822 50.9473L41.4715 51.9573C40.2122 51.3588 39.2521 50.1119 38.7409 48.6905 38.2421 50.2615 37.2446 51.6082 35.9478 52.2441L35.2122 51.2216C36.9329 50.3987 38.08 48.2665 38.08 46.3962L38.08 45.3114 35.6237 45.3114 35.6237 44.2516 41.7458 44.2516 41.7458 45.3114 39.3643 45.3114ZM45.8979 47.5683 45.8979 48.6281 44.1398 48.6281 44.1398 54.3887 42.8555 54.3887 42.8555 43.1294 44.1398 43.1294 44.1398 47.5683 45.8979 47.5683ZM52.7299 49.7378 54.9369 49.7378 54.9369 43.1169 56.2211 43.1169 56.2211 51.683 54.9369 51.683 54.9369 50.6356 52.7299 50.6356 52.7299 49.7378ZM50.4855 44.501C49.5504 44.501 48.9145 44.9 48.9145 45.5359 48.9145 46.1718 49.5504 46.5708 50.4855 46.5708 51.4082 46.5708 52.0441 46.1718 52.0441 45.5359 52.0441 44.9 51.4082 44.501 50.4855 44.501ZM50.4855 47.5184C48.8272 47.5184 47.6925 46.7329 47.6925 45.5359 47.6925 44.3389 48.8272 43.5533 50.4855 43.5533 52.1314 43.5533 53.2661 44.3389 53.2661 45.5359 53.2661 46.7329 52.1314 47.5184 50.4855 47.5184ZM49.9743 51.3214 49.9743 49.2266C48.902 49.2765 47.8796 49.289 46.9943 49.289L46.8322 48.2416C48.902 48.2291 51.6701 48.2042 54.0516 47.9049L54.1513 48.8276C53.2037 48.9897 52.2187 49.1019 51.2586 49.1518L51.2586 51.3214 49.9743 51.3214ZM49.6376 53.1293 56.483 53.1293 56.483 54.1767 48.3534 54.1767 48.3534 50.8476 49.6376 50.8476 49.6376 53.1293ZM66.9682 47.6057 65.7089 47.4685C65.9957 46.3588 66.0081 45.5483 66.0081 44.7005L59.5493 44.7005 59.5493 43.6656 67.2799 43.6656 67.2799 44.6132C67.2799 45.5109 67.2799 46.4461 66.9682 47.6057ZM63.4146 53.4037C65.073 53.4037 66.0705 52.9922 66.0705 52.2815 66.0705 51.5832 65.073 51.1718 63.4146 51.1718 61.7438 51.1718 60.7214 51.5832 60.7214 52.2815 60.7214 52.9922 61.7438 53.4037 63.4146 53.4037ZM63.4146 50.1867C65.8086 50.1867 67.3548 50.9847 67.3548 52.2815 67.3548 53.5907 65.8086 54.3887 63.4146 54.3887 60.9832 54.3887 59.4496 53.5907 59.4496 52.2815 59.4496 50.9847 60.9832 50.1867 63.4146 50.1867ZM63.664 48.279 68.5268 48.279 68.5268 49.3139 58.3773 49.3139 58.3773 48.279 62.3673 48.279 62.3673 46.2092 63.664 46.2092 63.664 48.279ZM73.7752 44.0646 73.7752 45.9099C73.7752 47.9174 74.8226 49.9498 76.5183 50.7852L75.7328 51.8077C74.5233 51.1842 73.6256 49.9623 73.1393 48.491 72.653 50.0496 71.7054 51.3588 70.4211 52.0196L69.6356 50.9847C71.3937 50.1244 72.4909 47.9922 72.4909 45.9099L72.4909 44.0646 73.7752 44.0646ZM80.3088 47.5932 80.3088 48.6531 78.5507 48.6531 78.5507 54.3887 77.2664 54.3887 77.2664 43.1294 78.5507 43.1294 78.5507 47.5932 80.3088 47.5932Z" fill="#898386" fill-rule="nonzero" fill-opacity="1" transform="matrix(1.00585 0 0 1 477 203)"/><path d="M1.35333 21.7758 4.63974 21.7758 4.63974 28.6068 4.69317 28.6068 10.2596 21.7758 13.7241 21.7758 7.53427 28.8652 14.3742 37.4952 10.3664 37.4952 4.70208 29.8894 4.64864 29.8894 4.64864 37.4952 1.35333 37.4952 1.35333 21.7758Z" fill="#005091" fill-rule="nonzero" fill-opacity="1" transform="matrix(1.00585 0 0 1 477 203)"/><path d="M33.3626 26.7277C33.3359 26.8523 31.5725 34.6987 31.5725 34.6987 31.5725 34.6987 28.9095 26.8345 28.8739 26.7277L27.3954 26.7277C27.3598 26.8345 24.9373 34.8323 24.9373 34.8323 24.9373 34.8323 22.9334 26.8434 22.9067 26.7277L20.2704 26.7277C20.3239 26.9236 23.2451 37.3795 23.2808 37.4953L25.7656 37.4953C25.8012 37.3884 28.0456 30.6108 28.0456 30.6108 28.0456 30.6108 30.5394 37.3884 30.575 37.4953L33.0865 37.4953C33.1133 37.3795 35.6783 26.9236 35.7228 26.7277L33.3626 26.7277Z" fill="#005091" fill-rule="nonzero" fill-opacity="1" transform="matrix(1.00585 0 0 1 477 203)"/><path d="M44.1754 35.812 44.1754 37.4953 47.0699 37.4953 47.0699 30.1833C47.0699 28.2595 46.5266 26.4783 42.6079 26.4783 39.4907 26.4783 37.8341 27.6361 37.7896 29.827L40.889 29.827C40.889 29.7825 40.889 29.7291 40.889 29.7291 40.9335 28.972 41.0225 27.3867 42.5811 27.3867 43.7033 27.3867 44.1754 28.0458 44.1754 29.6044L44.1754 31.5192 44.0952 31.5192C42.4297 31.5905 37.3532 31.7864 37.3532 35.0906 37.3532 36.6047 38.7604 37.7447 40.6307 37.7447 43.0443 37.7447 44.1754 35.8031 44.1754 35.8031L44.1754 35.812ZM41.8152 36.3286C40.9068 36.3286 40.3457 35.7052 40.3457 34.7077 40.3457 33.4252 41.6014 32.6681 44.0863 32.4455L44.1754 32.4455 44.1754 33.3272C44.1754 34.8145 43.3649 36.3286 41.8241 36.3286L41.8152 36.3286Z" fill="#005091" fill-rule="nonzero" fill-opacity="1" transform="matrix(1.00585 0 0 1 477 203)"/><path d="M54.8804 37.7536C55.5573 37.7536 56.2252 37.6913 56.9377 37.6201L56.9467 37.6201 56.9467 36.1862C56.5191 36.302 56.0382 36.3197 55.6642 36.3197 54.4351 36.3197 54.0165 35.8477 54.0165 34.4494L54.0165 27.8944 57.4009 27.8944 57.4009 26.7277 54.0165 26.7277 54.0165 22.5328C53.7938 22.6486 51.1932 24.0825 51.122 24.127L51.122 26.7277 48.8687 26.7277 48.8687 27.8944 51.122 27.8944 51.122 34.7967C51.122 37.2548 52.5648 37.7448 54.8804 37.7448L54.8804 37.7536Z" fill="#005091" fill-rule="nonzero" fill-opacity="1" transform="matrix(1.00585 0 0 1 477 203)"/><path d="M64.2228 37.7536C65.9417 37.7536 66.6898 37.5398 68.0347 37.0233L68.0347 36.0436C67.3934 36.2663 66.5829 36.4978 65.7636 36.4978 62.2278 36.4978 61.0878 32.7483 61.0878 30.9314L61.0878 30.8512 68.2573 30.8512 68.2573 30.5217C68.2573 27.9211 66.5562 26.4961 63.4658 26.4961 59.9656 26.4961 58.1933 28.2239 58.1933 31.6261 58.1933 37.1747 62.4148 37.7714 64.2228 37.7714L64.2228 37.7536ZM61.0878 29.7558C61.1947 29.0433 61.6222 27.3956 63.3678 27.3956 65.4073 27.3956 65.4697 29.5331 65.4697 29.7736L65.4697 29.8538 61.0789 29.8538 61.0789 29.7647 61.0878 29.7558Z" fill="#005091" fill-rule="nonzero" fill-opacity="1" transform="matrix(1.00585 0 0 1 477 203)"/><path d="M77.6358 29.1858 77.6358 26.4872C75.5161 26.6475 74.4741 28.0013 73.6191 29.4619L73.5122 29.6311 73.5122 26.7277 70.6177 26.7277 70.6177 37.4953 73.5122 37.4953 73.5122 32.6859C73.5122 30.1922 74.67 29.2036 77.6358 29.1858Z" fill="#005091" fill-rule="nonzero" fill-opacity="1" transform="matrix(1.00585 0 0 1 477 203)"/><path d="M20.2791 21.6689C28.5975 16.5211 38.3944 13.5375 48.8771 13.5375 59.3597 13.5375 69.2991 16.5567 77.6531 21.7758L77.6531 14.5973C69.1744 10.0106 59.4933 7.39217 49.2155 7.32983 38.2786 9.44953 28.3571 14.4459 20.2791 21.4997L20.2791 21.66 20.2791 21.6689Z" fill="url(#fill3)" fill-rule="nonzero" transform="matrix(1.00585 0 0 1 477 203)"/><path d="M20.2791 14.5083 20.2791 21.5086C28.366 14.4548 38.2786 9.45844 49.2155 7.33874 49.0997 7.33874 48.9928 7.33874 48.8771 7.33874 38.5458 7.33874 28.8024 9.93937 20.2791 14.5172L20.2791 14.5083Z" fill="#005091" fill-rule="nonzero" fill-opacity="1" transform="matrix(1.00585 0 0 1 477 203)"/><path d="M61.0608-8.69771e-06C46.1696-8.69771e-06 31.9997 4.73812 20.2791 13.493L20.2791 14.5083C28.8024 9.93047 38.5458 7.32983 48.8771 7.32983 48.9928 7.32983 49.1086 7.32983 49.2155 7.32983 53.0541 6.59062 57.0085 6.18983 61.0608 6.18983 69.4861 6.18983 77.5285 7.88202 84.8672 10.9369L84.8672 4.26608C77.4483 1.50515 69.4327-0.00891498 61.0608-0.00891498L61.0608-8.69771e-06Z" fill="url(#fill4)" fill-rule="nonzero" transform="matrix(1.00585 0 0 1 477 203)"/></g></g></g></g></g></svg>