<svg width="20" height="20" viewBox="0 0 20 20" fill="none" xmlns="http://www.w3.org/2000/svg">
<path d="M2.6 7.6H17.4V16C17.4 16.7732 16.7732 17.4 16 17.4H4C3.2268 17.4 2.6 16.7732 2.6 16V7.6Z" stroke="#2D2D2D" stroke-width="1.2"/>
<rect x="5.7002" y="11.6001" width="1.8" height="1.8" rx="0.9" fill="#2D2D2D"/>
<rect x="9.10022" y="11.6001" width="1.8" height="1.8" rx="0.9" fill="#2D2D2D"/>
<rect x="12.5002" y="11.6001" width="1.8" height="1.8" rx="0.9" fill="#2D2D2D"/>
<rect x="6.35" y="2.35" width="0.7" height="1.3" stroke="#2D2D2D" stroke-width="0.7"/>
<rect x="12.95" y="2.35" width="0.7" height="1.3" stroke="#2D2D2D" stroke-width="0.7"/>
<path d="M2.6 5C2.6 4.2268 3.2268 3.6 4 3.6H16C16.7732 3.6 17.4 4.2268 17.4 5V7.4H2.6V5Z" stroke="#2D2D2D" stroke-width="1.2"/>
</svg>
