<svg width="41" height="40" viewBox="0 0 41 40" fill="none" xmlns="http://www.w3.org/2000/svg">
<path d="M38.1654 21.7109H2.83503C2.10209 21.7109 1.50488 22.2962 1.50488 23.0244C1.50488 23.7481 2.10209 24.3378 2.83503 24.3378H8.05157C8.23707 25.4948 8.70308 27.5454 9.8432 29.7969C11.4312 32.933 14.6797 37.0698 21.1404 38.9551C21.24 38.9819 21.335 38.9953 21.4345 38.9953C21.8779 38.9953 22.2896 38.7094 22.4208 38.2671C22.5837 37.731 22.2715 37.1637 21.7241 37.0028C12.7659 34.3894 10.6304 27.1299 10.1328 24.3333H13.3586C14.6933 29.377 19.3443 33.1073 24.8639 33.1073C25.434 33.1073 25.891 32.6516 25.891 32.0932C25.891 31.5347 25.4295 31.0791 24.8639 31.0791C20.4889 31.0791 16.7835 28.2423 15.5077 24.3378H18.082C19.2719 26.5983 21.6607 28.1485 24.416 28.1485H24.7599C27.6238 28.1485 30.1257 26.6161 31.483 24.3378H38.17C38.9029 24.3378 39.5001 23.7481 39.5001 23.0244C39.4956 22.2962 38.8984 21.7109 38.1654 21.7109ZM24.7508 26.1113H24.407C22.8597 26.1113 21.4752 25.4189 20.5432 24.3333H28.9132C27.8681 25.4278 26.3886 26.1113 24.7508 26.1113Z" fill="white"/>
<path d="M26.031 19.1913H28.2344C27.2933 16.2071 24.4701 14.0315 21.1402 14.0315H20.3847C17.0548 14.0315 14.2316 16.2071 13.2905 19.1913H15.4939C16.3354 17.3508 18.2085 16.0642 20.3847 16.0642H21.1402C23.3164 16.0642 25.1895 17.3508 26.031 19.1913Z" fill="white"/>
<path d="M32.4826 19.1915C31.8583 13.8395 27.2389 9.66699 21.6514 9.66699H21.5609C14.6975 9.66699 9.85198 13.2945 8.39062 19.1915H10.5035C12.0734 13.7457 16.9461 11.6997 21.5609 11.6997H21.6514C26.0988 11.6997 29.7816 14.9653 30.3969 19.1915H32.4826Z" fill="white"/>
<path d="M20.1138 19.165C20.1138 19.1739 20.1183 19.1828 20.1183 19.1918H23.5387C22.9415 18.5529 22.0909 18.1509 21.1453 18.1509C20.5707 18.1509 20.1138 18.6066 20.1138 19.165Z" fill="white"/>
<path d="M20.4979 7.03113C27.7051 7.03113 33.6772 12.3295 34.6409 19.1914H36.713C35.7403 11.2081 28.8407 5.00293 20.4979 5.00293C12.155 5.00293 5.25544 11.2126 4.28271 19.1958H6.35485C7.31853 12.3339 13.2906 7.03113 20.4979 7.03113Z" fill="white"/>
<path d="M8.02432 8.13017C14.9013 1.33973 26.0945 1.33973 32.9714 8.13017C33.1705 8.32673 33.4374 8.42948 33.6998 8.42948C33.9622 8.42948 34.2247 8.3312 34.4282 8.13017C34.8309 7.73257 34.8309 7.08926 34.4282 6.69167C26.746 -0.893967 14.2498 -0.893967 6.57202 6.69167C6.16935 7.08926 6.16935 7.73257 6.57202 8.13017C6.97016 8.52777 7.62166 8.52777 8.02432 8.13017Z" fill="white"/>
</svg>
