<svg width="32" height="97" viewBox="0 0 32 97" fill="none" xmlns="http://www.w3.org/2000/svg">
<path d="M0 0H26C29.3137 0 32 2.68629 32 6V91C32 94.3137 29.3137 97 26 97H0V0Z" fill="#384C68"/>
<rect x="8" y="24" width="16" height="16" rx="8" fill="white"/>
<path d="M14.5 35L17.5 32L14.5 29" stroke="#384C68" stroke-width="1.2" stroke-linecap="round"/>
<path d="M17.6719 54.4687C18.7344 54.1562 19.3906 53.2969 19.3906 52.0625C19.3906 50.3125 18.0469 49.125 15.6719 49.125C13.2812 49.125 11.9219 50.2812 11.9219 52.0781C11.9219 53.6953 12.8359 54.6562 14.2656 54.6875L14.2656 52.2344L16.0312 52.2344L16.0312 56.9531L14.625 56.9531C11.6562 56.9531 9.84375 54.9219 9.84375 52.0625C9.84375 48.8906 12.0625 46.7344 15.6406 46.7344C19.3125 46.7344 21.4687 49.0312 21.4687 52.0156C21.4687 54.5625 19.9062 56.5312 17.6719 56.8437L17.6719 54.4687ZM21.3125 61.0156L10 61.0156L10 58.6719L21.3125 58.6719L21.3125 61.0156ZM18.0781 69.0625C18.9687 68.9687 19.5 68.25 19.5 67.1094C19.5 65.9219 18.9531 65.2656 18.2031 65.25C17.3906 65.2344 17.0156 66.0937 16.7969 67.0625L16.5469 68.0781C16.1094 70.0156 15.125 71.4687 13.2344 71.4687C11.1562 71.4687 9.84375 69.8437 9.84375 67.0937C9.84375 64.3594 11.1094 62.6094 13.5312 62.5469L13.5312 64.8281C12.3906 64.9062 11.8125 65.8125 11.8125 67.0625C11.8125 68.2969 12.3906 69.0937 13.2344 69.0937C14 69.0937 14.3594 68.3906 14.6719 67.1562L14.9687 65.9219C15.4375 64.0156 16.3906 62.8437 18.0469 62.8437C20.1094 62.8437 21.4687 64.6562 21.4687 67.125C21.4687 69.625 20.0781 71.2812 18.0781 71.3125L18.0781 69.0625Z" fill="white"/>
</svg>
