<svg width="202" height="88" viewBox="0 0 202 88" fill="none" xmlns="http://www.w3.org/2000/svg">
<g id="logo" clip-path="url(#clip0_979_30033)">
<g id="Group">
<g id="Group_2">
<g id="Group_3">
<g id="Group_4">
<path id="Vector" d="M-0.917969 50.7693H7.02712V66.7038H7.14882L20.6051 50.7693H28.9674L13.9812 67.2902L30.5321 87.4304H20.8311L7.14882 69.6695H7.02712V87.4136H-0.917969V50.7693Z" fill="#005097"/>
</g>
</g>
<path id="Vector_2" d="M76.5162 62.3138C76.4466 62.5987 72.1872 80.8957 72.1872 80.8957C72.1872 80.8957 65.7373 62.5652 65.6504 62.3138C65.407 62.3138 62.3472 62.3138 62.0864 62.3138C61.9994 62.5819 56.1232 81.2141 56.1232 81.2141C56.1232 81.2141 51.2727 62.5819 51.2032 62.3138C50.925 62.3138 45.2922 62.3138 44.8228 62.3138C44.9618 62.783 52.0377 87.1623 52.1072 87.4304C52.3854 87.4304 57.8444 87.4304 58.1051 87.4304C58.1921 87.179 63.6163 71.3786 63.6163 71.3786C63.6163 71.3786 69.649 87.179 69.7359 87.4304C69.9967 87.4304 75.5252 87.4304 75.8034 87.4304C75.8729 87.1455 82.0795 62.7662 82.1838 62.3138C81.7839 62.3138 76.7943 62.3138 76.5162 62.3138Z" fill="#005097"/>
<path id="Vector_3" d="M102.646 83.4929C102.646 83.4929 102.646 87.0785 102.646 87.4137C103.011 87.4137 109.288 87.4137 109.653 87.4137C109.653 87.045 109.653 70.3565 109.653 70.3565C109.653 65.8661 108.349 61.7107 98.8563 61.7107C91.3285 61.7107 87.2951 64.4083 87.2082 69.5188C87.5906 69.5188 94.3709 69.5188 94.7012 69.5188C94.7012 69.4182 94.7186 69.3009 94.7186 69.3009C94.8229 67.5249 95.0489 63.8386 98.8042 63.8386C101.516 63.8386 102.664 65.3802 102.664 68.9993V73.4563H102.472C98.4391 73.6071 86.165 74.0763 86.165 81.7838C86.165 85.3025 89.5726 87.9666 94.0927 87.9666C99.9342 88.0001 102.646 83.4929 102.646 83.4929ZM96.9613 84.6825C94.7708 84.6825 93.3973 83.2415 93.3973 80.9125C93.3973 77.93 96.4398 76.1539 102.438 75.6345L102.646 75.6178V77.6955C102.646 81.1639 100.699 84.6825 96.9613 84.6825Z" fill="#005097"/>
<path id="Vector_4" d="M128.551 88C130.185 88 131.802 87.8492 133.523 87.6984H133.558C133.558 87.4136 133.558 84.7662 133.558 84.3641C132.515 84.6322 131.367 84.6824 130.446 84.6824C127.473 84.6824 126.464 83.5766 126.464 80.3093V65.0282C126.464 65.0282 134.288 65.0282 134.653 65.0282C134.653 64.7099 134.653 62.6154 134.653 62.2971C134.288 62.2971 126.464 62.2971 126.464 62.2971C126.464 62.2971 126.464 53.115 126.464 52.5118C125.943 52.7967 119.649 56.1143 119.458 56.2148C119.458 56.4326 119.458 62.2803 119.458 62.2803C119.458 62.2803 114.382 62.2803 114.017 62.2803C114.017 62.5987 114.017 64.6931 114.017 65.0115C114.382 65.0115 119.458 65.0115 119.458 65.0115V81.0968C119.458 86.8607 122.935 88 128.551 88Z" fill="#005097"/>
<path id="Vector_5" d="M151.152 88.0001C155.307 88.0001 157.115 87.4974 160.366 86.291C160.366 86.09 160.366 84.3977 160.366 83.9955C158.818 84.4982 156.854 85.0511 154.872 85.0511C146.318 85.0511 143.554 76.3047 143.554 72.0656V71.8813C143.554 71.8813 160.522 71.8813 160.905 71.8813C160.905 71.63 160.905 71.1105 160.905 71.1105C160.905 65.045 156.784 61.7107 149.309 61.7107C140.842 61.7107 136.548 65.732 136.548 73.6741C136.565 86.6094 146.77 88.0001 151.152 88.0001ZM143.572 69.368C143.832 67.7092 144.875 63.8554 149.083 63.8554C154.02 63.8554 154.177 68.8318 154.177 69.4015V69.5858H143.554L143.572 69.368Z" fill="#005097"/>
<path id="Vector_6" d="M183.593 68.0442C183.593 67.7091 183.593 62.1463 183.593 61.7441C178.481 62.1295 175.96 65.2796 173.892 68.6809L173.631 69.0831C173.631 69.0831 173.631 62.6657 173.631 62.3138C173.266 62.3138 166.99 62.3138 166.625 62.3138C166.625 62.6825 166.625 87.0617 166.625 87.4304C166.99 87.4304 173.266 87.4304 173.631 87.4304C173.631 87.0617 173.631 76.2042 173.631 76.2042C173.631 70.3732 176.43 68.0777 183.593 68.0442Z" fill="#005097"/>
</g>
<g id="Group_5">
<g id="Group_6">
<g id="Group_7">
<path id="Vector_7" d="M44.8403 50.5011C64.9551 38.4873 88.6687 31.5506 114.017 31.5506C139.556 31.5506 163.408 38.5879 183.627 50.7691V34.0471C163.13 23.3571 139.712 17.2413 114.851 17.1073C88.4079 22.0502 64.3988 33.6953 44.8403 50.1324V50.5011Z" fill="url(#paint0_linear_979_30033)"/>
<path id="Vector_8" d="M44.8403 33.8293V50.1492C64.3988 33.7121 88.3905 22.067 114.851 17.1241C114.573 17.1241 114.295 17.1073 114.017 17.1073C89.0338 17.0906 65.4767 23.1561 44.8403 33.8293Z" fill="#005097"/>
</g>
</g>
<g id="Group_8">
<path id="Vector_9" d="M143.502 0C107.462 0 73.1958 11.0419 44.8403 31.4501V33.8126C65.4593 23.1394 89.0164 17.0906 114.017 17.0906C114.295 17.0906 114.573 17.1074 114.851 17.1074C124.135 15.3648 133.714 14.46 143.502 14.46C163.895 14.46 183.332 18.3976 201.082 25.5187V9.96953C183.141 3.51866 163.739 0 143.502 0Z" fill="url(#paint1_linear_979_30033)"/>
</g>
</g>
</g>
</g>
<defs>
<linearGradient id="paint0_linear_979_30033" x1="44.8477" y1="33.9413" x2="183.632" y2="33.9413" gradientUnits="userSpaceOnUse">
<stop offset="0.4" stop-color="#00B9EF"/>
<stop offset="1" stop-color="#4694D1"/>
</linearGradient>
<linearGradient id="paint1_linear_979_30033" x1="44.8477" y1="16.9126" x2="201.08" y2="16.9126" gradientUnits="userSpaceOnUse">
<stop stop-color="#ED6C00"/>
<stop offset="1" stop-color="#FDD000"/>
</linearGradient>
<clipPath id="clip0_979_30033">
<rect width="202" height="88" fill="white"/>
</clipPath>
</defs>
</svg>
