<svg width="70" height="32" viewBox="0 0 70 32" fill="none" xmlns="http://www.w3.org/2000/svg">
<g clip-path="url(#clip0_17_990)">
<path d="M0 18.4615H2.75325V24.2559H2.79542L7.45847 18.4615H10.3563L5.16309 24.4692L10.8985 31.7929H7.53679L2.79542 25.3344H2.75325V31.7868H0V18.4615Z" fill="#005097"/>
<path d="M26.8336 22.6595C26.8095 22.7631 25.3335 29.4166 25.3335 29.4166C25.3335 29.4166 23.0984 22.7509 23.0683 22.6595C22.9839 22.6595 21.9236 22.6595 21.8332 22.6595C21.8031 22.757 19.7668 29.5324 19.7668 29.5324C19.7668 29.5324 18.0859 22.757 18.0618 22.6595C17.9654 22.6595 16.0134 22.6595 15.8508 22.6595C15.899 22.8301 18.351 31.6953 18.3751 31.7928C18.4715 31.7928 20.3632 31.7928 20.4536 31.7928C20.4837 31.7014 22.3634 25.9558 22.3634 25.9558C22.3634 25.9558 24.4539 31.7014 24.484 31.7928C24.5744 31.7928 26.4902 31.7928 26.5866 31.7928C26.6107 31.6892 28.7615 22.8241 28.7977 22.6595C28.6591 22.6595 26.93 22.6595 26.8336 22.6595Z" fill="#005097"/>
<path d="M35.8886 30.361C35.8886 30.361 35.8886 31.6649 35.8886 31.7868C36.0152 31.7868 38.19 31.7868 38.3166 31.7868C38.3166 31.6527 38.3166 25.5842 38.3166 25.5842C38.3166 23.9513 37.8647 22.4402 34.5753 22.4402C31.9666 22.4402 30.5689 23.4212 30.5388 25.2795C30.6713 25.2795 33.0209 25.2795 33.1354 25.2795C33.1354 25.243 33.1414 25.2003 33.1414 25.2003C33.1776 24.5545 33.2559 23.214 34.5572 23.214C35.497 23.214 35.8947 23.7746 35.8947 25.0907V26.7114H35.8284C34.4307 26.7662 30.1773 26.9368 30.1773 29.7396C30.1773 31.0191 31.3581 31.9878 32.9245 31.9878C34.9488 32 35.8886 30.361 35.8886 30.361ZM33.9186 30.7936C33.1595 30.7936 32.6835 30.2696 32.6835 29.4227C32.6835 28.3382 33.7378 27.6923 35.8163 27.5035L35.8886 27.4974V28.2529C35.8886 29.5141 35.2139 30.7936 33.9186 30.7936Z" fill="#005097"/>
<path d="M44.8653 32C45.4316 32 45.9919 31.9452 46.5883 31.8903H46.6004C46.6004 31.7868 46.6004 30.8241 46.6004 30.6778C46.2389 30.7753 45.8413 30.7936 45.522 30.7936C44.4918 30.7936 44.1423 30.3915 44.1423 29.2034V23.6466C44.1423 23.6466 46.8534 23.6466 46.9799 23.6466C46.9799 23.5309 46.9799 22.7692 46.9799 22.6535C46.8534 22.6535 44.1423 22.6535 44.1423 22.6535C44.1423 22.6535 44.1423 19.3146 44.1423 19.0952C43.9616 19.1988 41.7807 20.4052 41.7144 20.4417C41.7144 20.521 41.7144 22.6474 41.7144 22.6474C41.7144 22.6474 39.9552 22.6474 39.8287 22.6474C39.8287 22.7631 39.8287 23.5248 39.8287 23.6405C39.9552 23.6405 41.7144 23.6405 41.7144 23.6405V29.4897C41.7144 31.5857 42.9193 32 44.8653 32Z" fill="#005097"/>
<path d="M52.6973 32C54.1372 32 54.7637 31.8172 55.8903 31.3786C55.8903 31.3054 55.8903 30.6901 55.8903 30.5438C55.3542 30.7266 54.6734 30.9277 53.9866 30.9277C51.0225 30.9277 50.0645 27.7472 50.0645 26.2057V26.1386C50.0645 26.1386 55.9446 26.1386 56.0771 26.1386C56.0771 26.0473 56.0771 25.8584 56.0771 25.8584C56.0771 23.6527 54.6493 22.4402 52.0587 22.4402C49.1247 22.4402 47.6366 23.9025 47.6366 26.7906C47.6427 31.4943 51.1791 32 52.6973 32ZM50.0706 25.2247C50.1609 24.6215 50.5224 23.2201 51.9804 23.2201C53.6914 23.2201 53.7456 25.0297 53.7456 25.2369V25.3039H50.0645L50.0706 25.2247Z" fill="#005097"/>
<path d="M63.9392 24.7433C63.9392 24.6215 63.9392 22.5986 63.9392 22.4524C62.168 22.5925 61.2944 23.738 60.5775 24.9749L60.4871 25.1211C60.4871 25.1211 60.4871 22.7875 60.4871 22.6596C60.3606 22.6596 58.1857 22.6596 58.0592 22.6596C58.0592 22.7936 58.0592 31.6588 58.0592 31.7928C58.1857 31.7928 60.3606 31.7928 60.4871 31.7928C60.4871 31.6588 60.4871 27.7106 60.4871 27.7106C60.4871 25.5902 61.4571 24.7555 63.9392 24.7433Z" fill="#005097"/>
<path d="M15.8568 18.364C22.8273 13.9954 31.0448 11.4729 39.8287 11.4729C48.6789 11.4729 56.9447 14.0319 63.9513 18.4615V12.3808C56.8483 8.49348 48.7331 6.26957 40.1179 6.22083C30.9545 8.01824 22.6345 12.2528 15.8568 18.23V18.364Z" fill="url(#paint0_linear_17_990)"/>
<path d="M15.8568 12.3016V18.2361C22.6345 12.2589 30.9484 8.02434 40.1179 6.22693C40.0215 6.22693 39.9251 6.22084 39.8287 6.22084C31.1714 6.21474 23.008 8.42038 15.8568 12.3016Z" fill="#005097"/>
<path d="M50.0465 0C37.5574 0 25.6829 4.01523 15.8568 11.4364V12.2955C23.002 8.41432 31.1653 6.21478 39.8287 6.21478C39.9251 6.21478 40.0215 6.22087 40.1179 6.22087C43.3351 5.5872 46.6546 5.25819 50.0465 5.25819C57.1133 5.25819 63.8489 6.69002 70 9.27951V3.62529C63.7826 1.27951 57.0591 0 50.0465 0Z" fill="url(#paint1_linear_17_990)"/>
</g>
<defs>
<linearGradient id="paint0_linear_17_990" x1="15.8593" y1="12.3423" x2="63.953" y2="12.3423" gradientUnits="userSpaceOnUse">
<stop offset="0.4" stop-color="#00B9EF"/>
<stop offset="1" stop-color="#4694D1"/>
</linearGradient>
<linearGradient id="paint1_linear_17_990" x1="15.8593" y1="6.15004" x2="69.9994" y2="6.15004" gradientUnits="userSpaceOnUse">
<stop stop-color="#ED6C00"/>
<stop offset="1" stop-color="#FDD000"/>
</linearGradient>
<clipPath id="clip0_17_990">
<rect width="70" height="32" fill="white"/>
</clipPath>
</defs>
</svg>
