<svg width="20" height="20" viewBox="0 0 20 20" fill="none" xmlns="http://www.w3.org/2000/svg">
<path d="M13.7445 2.776V3.55947C13.7445 4.04311 13.3459 4.43485 12.8537 4.43485H7.14405C6.65192 4.43485 6.25331 4.04311 6.25331 3.55947V2.776H2.66806V17.8435H17.3319V2.776H13.7467H13.7445Z" stroke="white" stroke-width="1.2" stroke-linecap="round" stroke-linejoin="round"/>
<path d="M12.8537 1.15649H7.14405C6.6521 1.15649 6.2533 1.54842 6.2533 2.03187V3.55941C6.2533 4.04287 6.6521 4.43479 7.14405 4.43479H12.8537C13.3457 4.43479 13.7445 4.04287 13.7445 3.55941V2.03187C13.7445 1.54842 13.3457 1.15649 12.8537 1.15649Z" stroke="white" stroke-width="1.2" stroke-linecap="round" stroke-linejoin="round"/>
<path d="M5.83688 11.4225H8.61155" stroke="white" stroke-width="1.2" stroke-linecap="round" stroke-linejoin="round"/>
<path d="M5.79012 8.24707H13.7445" stroke="white" stroke-width="1.2" stroke-linecap="round" stroke-linejoin="round"/>
</svg>
