<svg width="20" height="20" viewBox="0 0 20 20" fill="none" xmlns="http://www.w3.org/2000/svg">
<g clip-path="url(#clip0_780_5186)">
<path d="M17 0H3C1.34315 0 0 1.34315 0 3V17C0 18.6569 1.34315 20 3 20H17C18.6569 20 20 18.6569 20 17V3C20 1.34315 18.6569 0 17 0Z" fill="#C80A0A"/>
<path d="M16.1328 11.7969C15.7812 11.4062 15 11.2109 13.9453 11.2109C13.3203 11.2109 12.6562 11.2891 11.875 11.4062C11.0478 10.6314 10.3606 9.71961 9.84374 8.71094C10.2344 7.53906 10.5078 6.40625 10.5078 5.54688C10.5078 4.88281 10.2734 3.82812 9.33593 3.82812C9.06249 3.82812 8.82812 3.98438 8.67187 4.21875C8.28124 4.92188 8.43749 6.48438 9.17968 8.125C8.63752 9.6927 7.98484 11.22 7.22656 12.6953C5.15624 13.5547 3.78906 14.4922 3.67187 15.2344C3.59374 15.5859 3.82812 16.1719 4.64843 16.1719C5.85937 16.1719 7.18749 14.4141 8.20312 12.6172C9.37554 12.214 10.5769 11.9006 11.7969 11.6797C13.2812 12.9688 14.5703 13.1641 15.1953 13.1641C16.4453 13.1641 16.5625 12.2656 16.1328 11.7969ZM8.86718 4.33594C9.17968 3.86719 9.88281 4.02344 9.88281 4.96094C9.88281 5.58594 9.68749 6.60156 9.29687 7.77344C8.59374 6.13281 8.59374 4.84375 8.86718 4.33594ZM3.90624 15.2734C4.02343 14.6484 5.19531 13.7891 7.03124 13.0469C6.01562 14.7656 4.99999 15.8594 4.37499 15.8594C3.98437 15.8594 3.86718 15.5078 3.90624 15.2734ZM11.6016 11.4453C10.5009 11.6504 9.41713 11.9377 8.35937 12.3047C8.93753 11.2611 9.40868 10.1618 9.76562 9.02344C10.279 9.90091 10.8954 10.714 11.6016 11.4453ZM12.1094 11.6016C13.3594 11.4062 14.4141 11.4453 14.8828 11.5234C16.0156 11.7578 15.625 13.125 14.375 12.8125C13.4766 12.6172 12.7344 12.1094 12.1094 11.6016Z" fill="white"/>
</g>
<defs>
<clipPath id="clip0_780_5186">
<rect width="20" height="20" fill="white"/>
</clipPath>
</defs>
</svg>
