<svg width="253" height="142" viewBox="0 0 253 142" fill="none" xmlns="http://www.w3.org/2000/svg">
<g clip-path="url(#clip0_771_372)">
<path d="M118.753 42.6888C128.235 21.9341 151.598 8.92637 173 3.71649L171.548 18.2006C145.868 21.8153 127.692 36.9104 120.145 48.5011" fill="url(#paint0_linear_771_372)"/>
<path d="M121.316 41.993C131.996 29.7744 151.386 22.9099 168.085 25.3451L166.624 39.8293C156.955 36.2316 140.893 33.7624 125.018 44.8779" fill="url(#paint1_linear_771_372)"/>
<path d="M121.316 41.993L123.651 43.8088C128.167 38.4207 134.662 32.7357 142.862 28.0264C134.432 30.9538 126.75 35.7734 121.316 41.993Z" fill="#005097"/>
<path d="M102.631 4.03893C102.631 5.66808 103.54 6.50811 104.38 6.75418C105.407 7.05116 106.511 6.57599 107.139 5.58323C107.275 5.3711 107.241 5.09109 107.063 4.90442C106.884 4.72623 106.604 4.69229 106.384 4.81957C106.095 4.99775 105.441 5.26928 105.178 5.11655C105.051 5.04018 104.974 4.78563 104.974 4.41228C104.974 3.74195 105.552 3.21587 106.299 3.21587C107.521 3.21587 108.124 3.64862 108.124 4.53956C108.124 5.64263 107.869 9.23184 104.55 9.23184L103.675 9.22336C100.916 9.18093 97.4781 9.12154 94.9822 12.8465C92.8004 16.0878 91.128 17.8952 89.7867 19.3461C88.0124 21.2553 86.739 22.6299 85.559 25.8118C85.2958 26.5076 84.7015 28.3913 84.7015 30.6738L84.7525 31.7769C85.0326 35.0437 86.5437 37.7759 89.2349 39.9057C92.2996 42.3324 94.9398 43.5119 96.8244 44.0888C95.3812 44.267 93.7003 44.3349 92.4863 43.9446L91.6798 43.6816C88.2671 42.5615 83.097 40.873 81.7387 43.1894C80.9577 44.5131 80.7879 46.0913 81.2718 47.5168C81.7472 48.9169 83.097 50.9109 86.8748 52.4637C91.1705 54.2201 97.8432 52.9728 100.042 52.4891C100.305 53.4989 100.908 55.6287 101.621 56.9863C103.76 61.1101 110.747 68.4243 115.739 67.983C116.579 67.9067 117.174 67.5842 117.488 67.0242C117.649 66.7357 117.734 66.3793 117.734 65.9805C117.734 64.7247 116.936 63.0786 116.223 61.6361C116.223 61.6361 116.078 61.3392 115.985 61.1355C116.741 60.9149 117.691 60.4397 118.43 60.0155C119.763 61.407 125.434 66.9309 128.999 63.8593C129.797 63.172 130.196 62.3234 130.196 61.3222C130.196 59.1415 128.329 56.5281 126.351 53.7534C125.222 52.1667 124.059 50.5376 123.125 48.8575C129.441 49.4599 134.645 48.3738 136.759 45.981C137.777 44.8271 138.092 43.427 137.693 41.8233C137.455 40.8645 136.861 40.1093 135.927 39.6002C132.947 37.9711 127.106 39.1335 123.464 40.1178C125.57 37.9626 128.558 33.9236 128.558 28.3659C128.286 22.282 126.699 17.6831 123.829 14.6793C121.401 12.1423 118.591 11.2343 116.724 10.6404C116.002 10.4113 115.323 10.1907 115.043 9.97854C114.618 9.6561 114.202 8.37484 113.803 7.13601C112.836 4.12378 111.494 0 107.674 0C104.193 0 102.631 2.02795 102.631 4.03893Z" fill="url(#paint2_linear_771_372)"/>
<path d="M115.026 61.0252C115.068 61.0422 115.128 61.0422 115.178 61.0507C115.128 61.0592 115.077 61.0507 115.026 61.0252ZM99.9484 44.4537H99.9399C99.9314 44.4537 99.9399 44.4537 99.9484 44.4537Z" fill="url(#paint3_linear_771_372)"/>
<path d="M104.635 5.87171C103.947 5.67655 103.539 4.98926 103.539 4.03892C103.539 2.59644 104.618 0.907898 107.665 0.907898C110.823 0.907898 111.995 4.51409 112.937 7.41601C113.447 8.97728 113.846 10.2076 114.491 10.6998C114.898 11.0137 115.586 11.2343 116.443 11.5059C120.145 12.6938 127.047 14.8999 127.641 28.3743C127.641 36.2995 121.121 40.9918 121.053 41.0342C120.909 41.136 120.858 41.3396 120.934 41.5009C121.019 41.6621 121.206 41.7384 121.376 41.6791C121.478 41.6451 131.614 38.2765 135.477 40.3978C136.181 40.7881 136.614 41.3227 136.793 42.0354C137.115 43.3337 136.869 44.4537 136.062 45.3701C134.033 47.6611 128.583 48.6284 122.182 47.8393C122.046 47.8223 121.919 47.8817 121.843 47.992C121.766 48.1023 121.758 48.2466 121.817 48.3653C122.844 50.4103 124.245 52.3788 125.603 54.271C128.278 58.0215 130.595 61.2543 128.396 63.155C125.086 66.006 118.854 59.1415 118.795 59.0651C118.676 58.9379 118.489 58.9039 118.337 58.9972C116.978 59.7948 115.577 60.4143 115.28 60.3464H115.289C115.153 60.2955 114.983 60.3379 114.89 60.4397C114.796 60.55 114.762 60.7028 114.822 60.83L115.391 62.018C116.189 63.6471 117.182 65.6751 116.681 66.566C116.52 66.8545 116.18 67.0157 115.645 67.0666C111.401 67.44 104.694 60.9488 102.419 56.562C101.544 54.882 100.789 51.7679 100.789 51.7424C100.763 51.6491 100.704 51.5643 100.619 51.5133C100.534 51.4624 100.441 51.4455 100.339 51.4709C100.254 51.4964 91.9089 53.5413 87.2142 51.6152C84.4807 50.4951 82.7233 48.9763 82.1291 47.2199C81.7301 46.0489 81.8744 44.7422 82.5196 43.6476C83.5044 41.9675 88.8357 43.707 91.3995 44.547L92.206 44.8101C95.016 45.701 99.8211 44.4961 100.025 44.4452C100.203 44.4028 100.322 44.2246 100.296 44.0464C100.271 43.8597 100.11 43.724 99.9229 43.7325C99.8805 43.7325 95.5933 43.7834 89.795 39.1929C83.9034 34.5261 85.7201 28.018 86.4162 26.1343C87.5284 23.1135 88.6914 21.8662 90.4402 19.9825C91.807 18.5061 93.5134 16.6733 95.7376 13.3641C97.9619 10.0549 100.984 10.1058 103.658 10.1482L104.55 10.1567C107.852 10.1567 109.032 7.26328 109.032 4.55651C109.032 3.13949 108.039 2.32492 106.298 2.32492C105.042 2.32492 104.057 3.2498 104.057 4.43772C104.057 5.15896 104.278 5.6511 104.694 5.90565C104.677 5.8802 104.66 5.8802 104.635 5.87171Z" fill="url(#paint4_radial_771_372)"/>
<path d="M99.872 23.8772C99.7277 24.7172 99.1504 25.3197 98.5816 25.2179C98.0128 25.116 97.6732 24.3609 97.826 23.5208C97.9704 22.6808 98.5476 22.0783 99.1164 22.1802C99.6767 22.2735 100.016 23.0372 99.872 23.8772Z" fill="#009DDA"/>
<path d="M112.148 26.8385C111.995 27.738 111.375 28.3828 110.772 28.2725C110.17 28.1707 109.805 27.3561 109.957 26.4567C110.119 25.5573 110.73 24.9124 111.341 25.0227C111.944 25.1245 112.309 25.9391 112.148 26.8385Z" fill="#009DDA"/>
<path d="M97.6902 29.435C97.4865 29.452 97.3422 29.6217 97.3591 29.8253C97.5374 32.0315 98.8193 33.8558 100.806 34.6958C103.489 35.8413 106.85 35.0182 110.017 32.4303C110.17 32.303 110.195 32.0739 110.068 31.9212C109.94 31.7684 109.711 31.743 109.558 31.8702C106.604 34.28 103.522 35.0691 101.094 34.034C99.3626 33.2957 98.242 31.7005 98.0892 29.7744C98.0638 29.5708 97.8855 29.418 97.6902 29.435Z" fill="#009DDA"/>
<path d="M137.302 53.9316L136.742 54.1607C135.052 54.8396 133.303 55.5438 133.303 57.3427C133.303 59.2433 135.18 60.7876 137.48 60.7876C139.781 60.7876 141.657 59.2433 141.657 57.3427C141.657 56.2651 141.165 54.848 140.061 54.1098C139.509 53.7365 138.584 53.4056 137.302 53.9316Z" fill="url(#paint5_linear_771_372)"/>
<path d="M134.509 64.1817C134.509 65.1151 135.264 65.8703 136.198 65.8703C137.132 65.8703 137.888 65.1151 137.888 64.1817C137.888 63.2483 137.132 62.4932 136.198 62.4932C135.264 62.4847 134.509 63.2483 134.509 64.1817Z" fill="url(#paint6_linear_771_372)"/>
<path d="M133.932 57.3427C133.932 56.1293 135.12 55.5863 137.064 54.8056L137.684 54.5511C138.473 54.2286 139.17 54.2541 139.747 54.6444C140.596 55.2129 141.037 56.4263 141.037 57.3342C141.037 58.8446 139.441 60.0834 137.48 60.0834C135.528 60.0919 133.932 58.8615 133.932 57.3427Z" fill="url(#paint7_radial_771_372)"/>
<path d="M135.086 64.1817C135.086 63.5708 135.587 63.0701 136.198 63.0701C136.81 63.0701 137.31 63.5708 137.31 64.1817C137.31 64.7926 136.81 65.2932 136.198 65.2932C135.587 65.2847 135.086 64.7926 135.086 64.1817Z" fill="url(#paint8_radial_771_372)"/>
</g>
<g clip-path="url(#clip1_771_372)">
<mask id="mask0_771_372" style="mask-type:luminance" maskUnits="userSpaceOnUse" x="171" y="91" width="16" height="24">
<path d="M182.453 91.4651H172.264V96.1416H180.736C178.978 102.958 175.545 108.286 171.007 111.333C172.182 112.036 174.052 113.9 174.87 114.99C180.378 110.935 184.671 103.039 186.469 92.4839L183.312 91.3123L182.453 91.4651Z" fill="white"/>
</mask>
<g mask="url(#mask0_771_372)">
<path d="M186.469 91.3019H171.007V114.98H186.469V91.3019Z" fill="url(#paint9_linear_771_372)"/>
</g>
<mask id="mask1_771_372" style="mask-type:luminance" maskUnits="userSpaceOnUse" x="187" y="82" width="22" height="34">
<path d="M187.338 82V87.7056C187.338 87.7056 188.452 93.0239 192.264 100.9V100.849C192.468 101.317 192.704 101.766 192.918 102.214C195.677 107.92 199.438 112.565 204.681 115.52C205.499 114.124 207.103 112.168 208.278 111.2C203.475 108.938 199.806 105.169 197.026 100.492C200.195 98.0367 204.099 94.379 207.216 91.0678L202.882 88.0316C200.89 90.7927 197.803 94.1039 195.034 96.6714C194.247 94.9598 193.572 93.1462 192.979 91.2817C192.898 91.027 192.816 90.7723 192.744 90.5176L192.612 90.0998L189.873 82H187.338Z" fill="white"/>
</mask>
<g mask="url(#mask1_771_372)">
<path d="M208.268 82H187.338V115.52H208.268V82Z" fill="url(#paint10_linear_771_372)"/>
</g>
<path d="M189.873 82H187.338V87.7056C187.338 87.7056 188.452 93.0239 192.254 100.9V100.849V89.0606L189.873 82Z" fill="#005097"/>
<path d="M29.8417 89.9368V108.938H26.51V100.411H23.3828V97.4457H26.51V89.9368H29.8417Z" fill="#00A4E9"/>
<path d="M34.8596 89.5395H31.4257V109.621H34.8596V89.5395Z" fill="#00A4E9"/>
<path d="M67.481 99.0352C68.5132 99.0352 69.3818 99.2491 70.0768 99.6668C70.7717 100.085 71.3338 100.665 71.7528 101.389C72.1718 102.112 72.4784 102.937 72.6828 103.854C72.7544 104.292 72.8157 104.72 72.877 105.158H74.042V98.9536H76.9853V115.683H74.042V107.767H72.9281C72.877 108.561 72.7544 109.295 72.5704 109.967C72.3149 110.925 71.9572 111.75 71.4871 112.433C71.017 113.105 70.4447 113.625 69.7702 113.992C69.0957 114.369 68.3394 114.542 67.481 114.542C66.5918 114.542 65.8049 114.338 65.1304 113.921C64.4559 113.503 63.8836 112.942 63.4339 112.239C62.9638 111.536 62.6061 110.711 62.3711 109.774C62.136 108.836 62.0134 107.838 62.0134 106.789C62.0134 105.78 62.1156 104.802 62.3098 103.864C62.5142 102.927 62.831 102.102 63.2602 101.399C63.6997 100.676 64.2617 100.105 64.9567 99.677C65.6618 99.2491 66.4999 99.0352 67.481 99.0352ZM67.481 101.776C66.97 101.776 66.551 101.908 66.2341 102.183C65.9071 102.458 65.6516 102.815 65.4677 103.274C65.2633 103.742 65.1406 104.282 65.0691 104.883C65.0078 105.484 64.9771 106.126 64.9771 106.799C64.9771 107.492 65.0282 108.133 65.1304 108.724C65.2326 109.326 65.3859 109.855 65.6005 110.324C65.8049 110.772 66.0604 111.129 66.3772 111.394C66.694 111.659 67.0619 111.791 67.481 111.791C68.3701 111.791 69.0037 111.322 69.4023 110.395C69.7906 109.468 69.9848 108.266 69.9848 106.799C69.9848 106.137 69.9439 105.495 69.8622 104.883C69.7804 104.282 69.6475 103.752 69.4636 103.294C69.2694 102.825 69.0037 102.448 68.6869 102.183C68.3701 101.908 67.9715 101.776 67.481 101.776ZM78.4978 98.6072H81.5127V116.284H78.4978V98.6072Z" fill="#81888D"/>
<path d="M160.327 107.441H144.037V105.158H160.327V107.441ZM152.223 104.445C151.365 104.445 150.557 104.343 149.801 104.15C149.045 103.956 148.391 103.661 147.829 103.284C147.256 102.917 146.807 102.469 146.49 101.918C146.173 101.368 146.01 100.747 146.01 100.054C145.989 99.2593 146.163 98.5868 146.52 98.0265C146.878 97.4661 147.348 96.9974 147.941 96.6307C148.534 96.2842 149.188 96.0193 149.924 95.8461C150.659 95.6729 151.406 95.5812 152.162 95.5812C152.826 95.5812 153.521 95.6526 154.247 95.7952C154.972 95.9378 155.637 96.1722 156.239 96.5084C156.822 96.8446 157.313 97.2929 157.701 97.8736C158.089 98.4544 158.294 99.1778 158.314 100.054C158.294 100.716 158.14 101.328 157.834 101.878C157.527 102.428 157.108 102.886 156.567 103.274C156.025 103.651 155.381 103.946 154.635 104.15C153.909 104.343 153.092 104.445 152.223 104.445ZM158.14 114.43V116.692C157.711 116.845 157.221 116.987 156.658 117.11C156.096 117.232 155.524 117.323 154.921 117.385C154.298 117.466 153.674 117.507 153.041 117.517C152.407 117.527 151.784 117.486 151.181 117.415C150.578 117.334 150.005 117.211 149.474 117.048C148.943 116.875 148.472 116.661 148.084 116.396C147.696 116.111 147.399 115.765 147.164 115.377C146.929 114.98 146.817 114.501 146.817 113.951V111.791H154.788V110.844H146.848V108.561H157.507V114.033H149.586V114.175C149.586 114.511 149.883 114.766 150.465 114.96C151.058 115.153 151.784 115.265 152.663 115.316C153.541 115.347 154.471 115.296 155.463 115.164C156.444 115 157.343 114.766 158.14 114.43ZM155.728 100.044C155.708 99.2797 155.361 98.7397 154.666 98.4136C153.971 98.0876 153.163 97.9246 152.244 97.9246C151.784 97.9246 151.334 97.9552 150.905 98.0265C150.476 98.0978 150.097 98.2099 149.76 98.3729C149.413 98.5461 149.137 98.7702 148.922 99.0351C148.718 99.3102 148.616 99.6363 148.636 100.034C148.616 100.431 148.708 100.757 148.912 101.022C149.106 101.287 149.372 101.491 149.709 101.654C150.046 101.817 150.424 101.929 150.864 101.99C151.303 102.051 151.763 102.081 152.233 102.081C152.683 102.081 153.112 102.051 153.521 101.99C153.94 101.929 154.298 101.817 154.615 101.654C154.952 101.501 155.218 101.287 155.401 101.022C155.606 100.777 155.708 100.441 155.728 100.044Z" fill="#81888D"/>
<path d="M226.367 100.889V103.049C225.877 103.355 225.325 103.62 224.702 103.854C224.078 104.089 223.414 104.282 222.719 104.435C222.259 104.527 221.809 104.608 221.349 104.659V105.749H227.788V107.94H212.182V105.749H218.672V104.7C218.58 104.7 218.498 104.69 218.416 104.68C217.711 104.588 217.057 104.435 216.444 104.211C215.821 103.987 215.289 103.681 214.829 103.284C214.369 102.886 214.012 102.397 213.746 101.817C213.48 101.236 213.347 100.543 213.347 99.7585V96.8752H215.933V99.8808C215.933 100.655 216.24 101.236 216.853 101.633C217.466 102.031 218.273 102.255 219.265 102.316C220.256 102.377 221.37 102.285 222.617 102.031C223.843 101.786 225.1 101.409 226.367 100.889ZM225.836 111.322V113.513H224.119C224.129 113.605 224.16 113.696 224.191 113.778C224.221 113.859 224.252 113.951 224.283 114.043C224.293 114.134 224.313 114.226 224.344 114.308C224.364 114.389 224.375 114.481 224.375 114.573C224.375 115.398 224.037 116.101 223.363 116.702C222.688 117.303 221.605 117.599 220.133 117.599C219.377 117.599 218.723 117.507 218.192 117.334C217.66 117.16 217.221 116.926 216.863 116.641C216.526 116.356 216.28 116.03 216.117 115.663C215.953 115.296 215.882 114.939 215.882 114.573C215.882 114.389 215.902 114.206 215.953 114.033C216.005 113.849 216.076 113.686 216.189 113.533H214.451V111.343H225.836V111.322ZM215.79 109.794L217.027 108.011C217.364 108.205 217.773 108.347 218.273 108.429C218.764 108.51 219.357 108.551 220.041 108.531H223.966V110.721H219.97C219.224 110.721 218.478 110.67 217.721 110.558C216.965 110.456 216.321 110.202 215.79 109.794ZM220.123 115.53C220.716 115.53 221.155 115.439 221.441 115.265C221.717 115.092 221.86 114.848 221.86 114.542C221.86 114.226 221.687 113.971 221.339 113.778C220.992 113.584 220.583 113.493 220.123 113.493C219.633 113.493 219.224 113.584 218.887 113.758C218.549 113.931 218.386 114.196 218.386 114.542C218.386 114.827 218.539 115.072 218.825 115.245C219.132 115.439 219.561 115.53 220.123 115.53Z" fill="#81888D"/>
<path d="M240.522 109.02C240.144 109.326 239.704 109.58 239.214 109.804C238.723 110.029 238.212 110.192 237.66 110.293C237.108 110.395 236.556 110.456 235.984 110.456C235.412 110.456 234.86 110.385 234.329 110.253C233.777 110.12 233.266 109.916 232.785 109.641C232.305 109.366 231.896 109.02 231.539 108.592C231.171 108.164 230.884 107.655 230.68 107.053C230.476 106.452 230.373 105.77 230.373 104.995V97.9144H239.306V100.166H232.959V105.199C232.959 105.923 233.174 106.524 233.613 107.003C234.053 107.471 234.625 107.787 235.34 107.94C236.045 108.113 236.843 108.113 237.752 107.94C238.662 107.777 239.581 107.42 240.532 106.87V109.02H240.522ZM244.753 102.571H247.584V104.781H244.753V111.73L242.198 111.71V96.8548H244.753V102.571Z" fill="#81888D"/>
<path d="M249.873 112.698L250.067 107.278H251.804C252.131 107.278 252.418 107.41 252.673 107.675C252.929 107.94 253.031 108.296 253 108.745L252.346 113.737H250.793C250.578 113.737 250.363 113.635 250.169 113.411C249.965 113.187 249.873 112.953 249.873 112.698Z" fill="#81888D"/>
<path d="M112.887 125.291L114.747 135.377C114.788 135.581 114.829 135.704 114.87 135.765C114.911 135.826 115.003 135.856 115.136 135.856C115.238 135.856 115.32 135.826 115.35 135.754C115.391 135.693 115.432 135.571 115.473 135.398L117.21 125.291H119.551L117.588 136.213C117.537 136.437 117.445 136.671 117.312 136.916C117.18 137.15 117.016 137.364 116.812 137.558C116.597 137.741 116.352 137.894 116.076 138.016C115.8 138.139 115.493 138.2 115.156 138.2C114.522 138.2 113.991 138.016 113.582 137.66C113.163 137.303 112.898 136.824 112.785 136.223L111.763 130.681L110.823 136.223C110.7 136.824 110.435 137.303 110.016 137.66C109.597 138.016 109.075 138.2 108.442 138.2C108.094 138.2 107.777 138.139 107.501 138.016C107.226 137.894 106.97 137.741 106.766 137.558C106.561 137.374 106.398 137.16 106.265 136.916C106.132 136.671 106.05 136.447 105.999 136.213L104.037 125.291H106.377L108.115 135.398C108.145 135.571 108.176 135.693 108.217 135.754C108.258 135.826 108.339 135.856 108.462 135.856C108.585 135.856 108.667 135.826 108.707 135.765C108.759 135.704 108.799 135.571 108.84 135.377L110.7 125.291H112.887Z" fill="#C5C9CE"/>
<path d="M124.548 138.251C123.24 138.261 122.197 137.843 121.421 136.997C120.634 136.152 120.246 134.939 120.246 133.37C120.246 132.637 120.348 131.975 120.552 131.384C120.756 130.793 121.053 130.283 121.441 129.855C121.819 129.448 122.269 129.122 122.79 128.887C123.322 128.653 123.904 128.531 124.538 128.521C125.897 128.531 126.929 128.979 127.645 129.866C128.36 130.752 128.718 131.913 128.718 133.37C128.718 134.939 128.36 136.142 127.645 136.997C126.939 137.843 125.907 138.271 124.548 138.251ZM124.548 130.436C123.792 130.446 123.24 130.721 122.903 131.261C122.565 131.801 122.402 132.525 122.402 133.421C122.402 134.338 122.555 135.062 122.872 135.571C123.189 136.091 123.741 136.345 124.538 136.335C125.274 136.345 125.795 136.091 126.101 135.571C126.408 135.051 126.561 134.338 126.561 133.421C126.561 132.504 126.408 131.781 126.101 131.251C125.795 130.721 125.274 130.446 124.548 130.436Z" fill="#C5C9CE"/>
<path d="M132.519 129.703C132.652 129.499 132.887 129.305 133.214 129.122C133.552 128.938 133.96 128.847 134.451 128.847H136.158V130.803H135.177C134.482 130.803 133.92 130.986 133.49 131.353C133.061 131.72 132.836 132.229 132.836 132.902V137.925H130.68V131.608C130.68 131.261 130.598 131.017 130.424 130.884C130.261 130.752 129.975 130.681 129.576 130.681V128.887C129.934 128.806 130.281 128.786 130.619 128.816C130.956 128.847 131.252 128.908 131.518 129.01C131.794 129.091 132.029 129.193 132.203 129.326C132.376 129.458 132.479 129.58 132.519 129.703Z" fill="#C5C9CE"/>
<path d="M139.356 125.311H137.18V137.935H139.356V125.311Z" fill="#C5C9CE"/>
<path d="M144.865 128.541C145.468 128.541 145.958 128.643 146.347 128.836C146.735 129.04 147.001 129.234 147.164 129.417V125.311H149.362V135.062C149.362 135.418 149.433 135.673 149.566 135.826C149.699 135.979 149.965 136.06 150.363 136.06V137.792C150.097 137.996 149.811 138.118 149.525 138.169C149.229 138.22 148.953 138.22 148.708 138.149C148.442 138.077 148.207 137.955 147.992 137.772C147.788 137.588 147.634 137.354 147.542 137.069C147.358 137.344 147.042 137.609 146.592 137.853C146.142 138.098 145.56 138.22 144.844 138.22C144.088 138.22 143.455 138.067 142.944 137.772C142.433 137.476 142.034 137.089 141.727 136.61C141.421 136.131 141.206 135.591 141.073 134.97C140.951 134.359 140.889 133.737 140.889 133.116C140.889 132.484 140.961 131.893 141.124 131.343C141.278 130.782 141.513 130.304 141.83 129.886C142.167 129.478 142.576 129.142 143.076 128.898C143.577 128.663 144.17 128.541 144.865 128.541ZM145.1 136.345C145.539 136.345 145.897 136.254 146.163 136.07C146.429 135.887 146.633 135.653 146.776 135.347C146.919 135.051 147.021 134.725 147.072 134.359C147.123 133.992 147.154 133.635 147.154 133.268C147.154 132.881 147.123 132.515 147.062 132.168C147.001 131.822 146.888 131.516 146.735 131.251C146.572 130.996 146.357 130.793 146.091 130.64C145.826 130.487 145.488 130.406 145.069 130.406C144.64 130.406 144.303 130.487 144.047 130.65C143.792 130.813 143.608 131.017 143.485 131.272C143.352 131.536 143.26 131.832 143.22 132.168C143.179 132.504 143.158 132.851 143.158 133.207C143.158 133.564 143.179 133.931 143.22 134.308C143.26 134.685 143.352 135.021 143.495 135.327C143.628 135.632 143.822 135.877 144.078 136.07C144.354 136.244 144.691 136.345 145.1 136.345Z" fill="#C5C9CE"/>
<path d="M166.04 127.166H162.688V137.935H160.501V127.166H157.129V125.291H166.04V127.166Z" fill="#C5C9CE"/>
<path d="M169.321 138.251C168.013 138.261 166.97 137.843 166.193 136.997C165.417 136.152 165.028 134.939 165.028 133.37C165.028 132.637 165.131 131.975 165.335 131.384C165.539 130.793 165.836 130.283 166.224 129.855C166.592 129.448 167.052 129.122 167.573 128.887C168.105 128.653 168.687 128.531 169.321 128.521C170.68 128.531 171.712 128.979 172.428 129.866C173.143 130.752 173.501 131.913 173.501 133.37C173.501 134.939 173.143 136.142 172.428 136.997C171.722 137.843 170.68 138.271 169.321 138.251ZM169.321 130.436C168.564 130.446 168.013 130.721 167.686 131.261C167.348 131.801 167.185 132.525 167.185 133.421C167.185 134.338 167.338 135.062 167.655 135.571C167.972 136.091 168.524 136.345 169.321 136.335C170.057 136.345 170.578 136.091 170.884 135.571C171.191 135.051 171.344 134.338 171.344 133.421C171.344 132.504 171.191 131.781 170.884 131.251C170.578 130.721 170.057 130.446 169.321 130.436Z" fill="#C5C9CE"/>
<path d="M179.663 138.21C179.05 138.21 178.549 138.118 178.151 137.925C177.762 137.731 177.486 137.537 177.343 137.334V142H175.166V131.71C175.166 131.353 175.105 131.098 174.972 130.966C174.839 130.823 174.574 130.762 174.175 130.762V129.03C174.696 128.653 175.248 128.531 175.82 128.663C176.403 128.786 176.791 129.132 176.996 129.692C177.17 129.427 177.486 129.163 177.936 128.918C178.386 128.663 178.978 128.541 179.694 128.541C180.44 128.541 181.063 128.694 181.574 128.999C182.085 129.305 182.484 129.703 182.79 130.171C183.097 130.66 183.312 131.21 183.455 131.822C183.587 132.433 183.659 133.044 183.659 133.656C183.659 134.298 183.577 134.888 183.414 135.439C183.25 135.989 183.015 136.478 182.698 136.885C182.361 137.293 181.952 137.619 181.452 137.863C180.93 138.098 180.348 138.21 179.663 138.21ZM179.428 130.416C178.978 130.416 178.621 130.507 178.345 130.691C178.079 130.874 177.875 131.119 177.721 131.404C177.578 131.71 177.476 132.046 177.435 132.402C177.384 132.759 177.364 133.126 177.364 133.482C177.364 133.88 177.384 134.257 177.445 134.603C177.497 134.95 177.609 135.255 177.762 135.52C177.905 135.775 178.12 135.968 178.386 136.121C178.651 136.264 178.999 136.345 179.428 136.345C179.837 136.345 180.174 136.264 180.43 136.111C180.685 135.958 180.879 135.744 181.012 135.479C181.145 135.225 181.237 134.929 181.288 134.593C181.339 134.257 181.36 133.9 181.36 133.544C181.36 133.187 181.339 132.82 181.288 132.453C181.237 132.087 181.145 131.75 181.002 131.445C180.869 131.139 180.675 130.895 180.419 130.701C180.154 130.518 179.827 130.416 179.428 130.416Z" fill="#C5C9CE"/>
<path d="M22.974 105.8C22.698 104.965 22.3199 104.18 21.8498 103.457C21.3593 102.734 20.7869 102.112 20.1533 101.572C19.7037 101.205 19.2131 100.889 18.7021 100.614C18.3649 100.411 17.9867 100.197 17.721 100.105C17.0261 100.9 16.3311 101.582 15.4522 102.265C15.6669 102.418 16.0041 102.642 16.4947 102.948C16.5049 102.948 16.5253 102.968 16.5355 102.968C16.6582 103.049 16.791 103.131 16.9443 103.223C17.3838 103.498 17.9765 103.885 18.1196 103.997C18.5284 104.323 18.8861 104.7 19.1722 105.107C19.4584 105.515 19.6934 105.963 19.8672 106.452C20.0409 106.931 20.1431 107.41 20.1635 107.889L20.1942 109.122H23.4134V108.347C23.393 107.492 23.2499 106.636 22.974 105.8Z" fill="#00A4E9"/>
<path d="M191.763 125.311H194.4V130.782H194.441L198.907 125.311H201.687L196.71 130.976L202.208 137.894H198.989L194.441 131.801H194.4V137.894H191.763V125.311Z" fill="#C5C9CE"/>
<path d="M217.466 129.275C217.445 129.376 216.025 135.653 216.025 135.653C216.025 135.653 213.889 129.366 213.858 129.275H212.673C212.642 129.366 210.7 135.765 210.7 135.765C210.7 135.765 209.096 129.366 209.065 129.275H206.95C206.991 129.438 209.341 137.802 209.372 137.894H211.365C211.395 137.813 213.194 132.382 213.194 132.382C213.194 132.382 215.197 137.813 215.228 137.894H217.241C217.262 137.802 219.316 129.427 219.357 129.275H217.466Z" fill="#C5C9CE"/>
<path d="M226.143 136.539V137.884H228.462V132.025C228.462 130.487 228.033 129.061 224.875 129.061C222.371 129.061 221.043 129.988 221.012 131.74H223.496C223.496 131.699 223.506 131.669 223.506 131.669C223.537 131.058 223.608 129.794 224.855 129.794C225.754 129.794 226.132 130.324 226.132 131.567V133.095H226.071C224.732 133.146 220.655 133.309 220.655 135.958C220.655 137.171 221.789 138.077 223.291 138.077C225.243 138.098 226.143 136.539 226.143 136.539ZM224.252 136.957C223.526 136.957 223.066 136.457 223.066 135.663C223.066 134.634 224.078 134.033 226.071 133.849H226.143V134.562C226.143 135.744 225.488 136.957 224.252 136.957Z" fill="#C5C9CE"/>
<path d="M234.737 138.098C235.279 138.098 235.821 138.047 236.393 137.996H236.403V136.855C236.056 136.946 235.678 136.967 235.371 136.967C234.38 136.967 234.053 136.59 234.053 135.469V130.222H236.771V129.275H234.053V125.912C233.879 126.004 231.794 127.145 231.733 127.186V129.275H229.924V130.212H231.733V135.734C231.712 137.7 232.867 138.098 234.737 138.098Z" fill="#C5C9CE"/>
<path d="M242.239 138.098C243.618 138.098 244.211 137.925 245.294 137.507V136.722C244.783 136.896 244.129 137.079 243.475 137.079C240.634 137.079 239.725 134.073 239.725 132.627V132.565H245.489V132.301C245.489 130.222 244.119 129.071 241.636 129.071C238.825 129.071 237.405 130.456 237.405 133.177C237.394 137.609 240.777 138.098 242.239 138.098ZM239.725 131.699C239.806 131.129 240.154 129.804 241.554 129.804C243.199 129.804 243.24 131.506 243.24 131.71V131.771H239.714L239.725 131.699Z" fill="#C5C9CE"/>
<path d="M253 131.241V129.081C251.304 129.213 250.466 130.293 249.781 131.455L249.699 131.587V129.275H247.379V137.894H249.699V134.043C249.699 132.046 250.629 131.251 253 131.241Z" fill="#C5C9CE"/>
<path d="M47.7364 99.7891C48.1248 100.258 48.4416 100.757 48.6664 101.277C48.8913 101.796 49.0139 102.295 49.0343 102.774V103.732H52.2536V102.968C52.2536 102.02 52.0798 101.103 51.7221 100.207C51.3747 99.3102 50.9046 98.5053 50.3322 97.7922C49.7293 97.0688 49.0446 96.4676 48.2576 95.9684C48.1248 95.8869 47.9817 95.8258 47.8488 95.7545C47.5934 96.6612 47.205 97.8737 46.7451 98.9027C47.113 99.1778 47.4503 99.4631 47.7364 99.7891Z" fill="#81888D"/>
<path d="M47.1232 91.0168V89.8757H43.5974V90.9557C43.5974 93.8492 43.1171 96.0703 42.1462 97.6189C41.1754 99.1676 39.4584 100.166 36.9853 100.594V103.681C38.835 103.498 40.4089 103.029 41.6966 102.275C42.9843 101.521 44.0267 100.584 44.834 99.4528C45.0589 99.1472 45.2633 98.8212 45.4574 98.4646C46.0195 97.2216 46.5816 95.3876 46.8678 94.1854C47.0313 93.1666 47.1232 92.107 47.1232 91.0168Z" fill="#81888D"/>
<path d="M55.4319 107.186C54.9005 106.636 54.2566 106.198 53.5106 105.872C52.7645 105.556 51.947 105.393 51.0374 105.393C50.1074 105.393 49.2796 105.556 48.5336 105.872C47.7875 106.187 47.1641 106.626 46.6531 107.186C46.1421 107.736 45.7436 108.388 45.4779 109.142C45.2121 109.896 45.0793 110.701 45.0793 111.557C45.0793 113.319 45.6107 114.787 46.6736 115.948C47.7364 117.11 49.1876 117.69 51.0476 117.69C51.9572 117.69 52.7748 117.537 53.5208 117.232C54.2668 116.926 54.9005 116.498 55.4421 115.968C55.9531 115.418 56.3619 114.766 56.648 114.012C56.9342 113.268 57.0773 112.443 57.0773 111.567C57.0773 110.701 56.9342 109.896 56.648 109.152C56.3414 108.388 55.9429 107.736 55.4319 107.186ZM52.8463 113.829C52.4068 114.42 51.7834 114.705 50.9761 114.705C50.1074 114.705 49.4942 114.41 49.1263 113.829C48.7584 113.238 48.5744 112.484 48.5744 111.567C48.5744 110.64 48.7788 109.886 49.1774 109.305C49.576 108.724 50.1994 108.429 51.0476 108.429C51.9572 108.429 52.5908 108.735 52.9689 109.356C53.3368 109.978 53.5208 110.711 53.5208 111.577C53.5106 112.484 53.296 113.238 52.8463 113.829Z" fill="#81888D"/>
<path d="M57.2817 95.6016V89.5395H53.8274V104.873H57.2817V98.5869H61.1141V95.6016H57.2817Z" fill="#81888D"/>
<path d="M98.6103 90.2629C99.4177 90.6704 100.245 90.9557 101.104 91.1391C101.973 91.3021 102.831 91.3429 103.679 91.2715C104.272 91.2104 104.844 91.0881 105.406 90.9149L105.314 87.6546C105.059 87.7259 103.659 88.0316 103.393 88.0622C102.862 88.1233 102.341 88.1029 101.84 88.0214C101.339 87.9297 100.848 87.7769 100.368 87.5527C99.898 87.3286 99.479 87.0637 99.1315 86.7377L98.222 85.8716L95.9123 88.1742L96.4642 88.7244C97.0876 89.3459 97.8029 89.8553 98.6103 90.2629Z" fill="#F2AD48"/>
<path d="M94.0012 95.6628H95.7284C95.524 95.9175 95.34 96.1824 95.1969 96.4779C94.9006 97.0586 94.7575 97.7107 94.7575 98.4137C94.7575 100.227 95.2889 101.684 96.362 102.785C97.4351 103.885 98.8658 104.425 100.664 104.425C102.422 104.425 103.853 103.875 104.947 102.785C106.04 101.684 106.592 100.237 106.592 98.4137C106.592 97.6801 106.439 97.028 106.122 96.4473C105.979 96.1824 105.795 95.9175 105.59 95.6628H107.226V92.5349H94.0012V95.6628ZM98.8352 96.4779C99.2337 95.9379 99.8367 95.6628 100.654 95.6628C101.513 95.6628 102.136 95.9582 102.504 96.539C102.862 97.1197 103.035 97.7616 103.035 98.4442C103.035 99.3816 102.852 100.125 102.473 100.686C102.095 101.236 101.451 101.511 100.552 101.511C99.7754 101.511 99.1928 101.236 98.8045 100.686C98.4161 100.136 98.222 99.3918 98.222 98.4442C98.2322 97.7005 98.4366 97.0484 98.8352 96.4779Z" fill="#F2AD48"/>
<path d="M113.552 116.101C114.073 115.54 114.482 114.878 114.778 114.114C115.074 113.35 115.217 112.525 115.217 111.628C115.217 110.752 115.074 109.937 114.778 109.173C114.482 108.409 114.073 107.756 113.552 107.186C113.01 106.626 112.356 106.177 111.61 105.851C110.854 105.525 110.016 105.362 109.096 105.362C108.156 105.362 107.307 105.525 106.551 105.851C105.795 106.177 105.161 106.615 104.63 107.186C104.109 107.756 103.71 108.409 103.434 109.173C103.158 109.937 103.025 110.752 103.025 111.628C103.025 113.421 103.567 114.909 104.64 116.091C105.713 117.273 107.195 117.863 109.086 117.863C110.005 117.863 110.843 117.711 111.6 117.395C112.356 117.069 113.01 116.641 113.552 116.101ZM109.034 114.817C108.156 114.817 107.532 114.522 107.154 113.931C106.776 113.34 106.592 112.565 106.592 111.628C106.592 110.691 106.796 109.927 107.205 109.346C107.614 108.765 108.248 108.47 109.106 108.47C110.026 108.47 110.67 108.775 111.048 109.397C111.426 110.008 111.61 110.762 111.61 111.628C111.61 112.565 111.385 113.33 110.935 113.931C110.486 114.522 109.852 114.817 109.034 114.817Z" fill="#F2AD48"/>
<path d="M113.337 95.133H111.416V89.5089H108.033V104.557H111.416V98.1386H113.337V104.68H116.822V89.0912H113.337V95.133Z" fill="#F2AD48"/>
<path d="M124.068 110.976H134.022V117.171H137.507V107.909H124.068V110.976Z" fill="#81888D"/>
<path d="M132.55 103.365V101.929H132.703C134.819 101.929 136.413 101.328 137.486 100.115C138.569 98.9027 139.101 97.3031 139.101 95.296V89.0912H135.647V91.0576V92.4738V95.5711V96.1926V96.2843H135.636C135.626 96.5492 135.575 96.8242 135.473 97.0993C135.36 97.4152 135.177 97.7005 134.921 97.9755C134.666 98.2303 134.328 98.4442 133.899 98.6174C133.47 98.7906 132.938 98.8823 132.315 98.8823H128.83C127.614 98.9027 126.776 98.648 126.316 98.1182C125.856 97.5884 125.621 97.0688 125.621 96.5695V95.5711H133.388V92.4738H125.621V89.0912H122.167V95.2858C122.167 97.354 122.688 98.974 123.73 100.156C124.773 101.338 126.388 101.929 128.564 101.929H128.851V103.365H119.939V106.371H141.38V103.365H132.55Z" fill="#81888D"/>
<path d="M135.657 96.2841V96.1926C135.657 96.2231 135.647 96.2638 135.657 96.2841Z" fill="white"/>
<mask id="mask2_771_372" style="mask-type:luminance" maskUnits="userSpaceOnUse" x="182" y="87" width="11" height="31">
<path d="M187.338 112.331C187.338 112.993 187.062 113.268 186.285 113.268C185.703 113.268 184.293 113.289 182.606 113.258V117.721C183.904 117.802 188.595 118.057 190.036 117.323C191.641 116.549 192.264 115.143 192.264 112.341V100.9C188.452 93.024 187.338 87.7056 187.338 87.7056V112.331Z" fill="white"/>
</mask>
<g mask="url(#mask2_771_372)">
<path d="M192.254 87.7056H182.596V118.057H192.254V87.7056Z" fill="url(#paint11_linear_771_372)"/>
</g>
<path d="M22.1666 90.2833H18.6919C16.8524 93.7983 14.2157 96.9669 10.8431 99.514C7.52173 102.01 3.82218 103.64 0 104.476V107.695C4.43537 106.84 8.75832 105.006 12.6112 102.132C12.6623 102.102 12.7031 102.061 12.7542 102.031C16.9648 98.862 20.1431 94.807 22.2075 90.324L22.1666 90.2833Z" fill="#00A4E9"/>
<path d="M205.662 130.884H201.482V132.565H205.662V130.884Z" fill="#C5C9CE"/>
</g>
<defs>
<linearGradient id="paint0_linear_771_372" x1="115.654" y1="34.7794" x2="176.548" y2="15.8336" gradientUnits="userSpaceOnUse">
<stop stop-color="#ED6C00"/>
<stop offset="1" stop-color="#FDD000"/>
</linearGradient>
<linearGradient id="paint1_linear_771_372" x1="121.479" y1="43.2304" x2="168.841" y2="28.4948" gradientUnits="userSpaceOnUse">
<stop offset="0.4" stop-color="#00B9EF"/>
<stop offset="1" stop-color="#4694D1"/>
</linearGradient>
<linearGradient id="paint2_linear_771_372" x1="81.0581" y1="34.0007" x2="137.793" y2="34.0007" gradientUnits="userSpaceOnUse">
<stop stop-color="#EAF6FD"/>
<stop offset="1" stop-color="#BAE3F9"/>
</linearGradient>
<linearGradient id="paint3_linear_771_372" x1="86.871" y1="17.0796" x2="117.815" y2="70.4996" gradientUnits="userSpaceOnUse">
<stop stop-color="#EAF6FD"/>
<stop offset="1" stop-color="#BAE3F9"/>
</linearGradient>
<radialGradient id="paint4_radial_771_372" cx="0" cy="0" r="1" gradientUnits="userSpaceOnUse" gradientTransform="translate(101.811 15.5953) scale(46.8987 46.875)">
<stop stop-color="white"/>
<stop offset="0.5" stop-color="#7ECEF4"/>
<stop offset="0.9" stop-color="#0075C2"/>
<stop offset="1" stop-color="#0081CC"/>
</radialGradient>
<linearGradient id="paint5_linear_771_372" x1="133.29" y1="57.2191" x2="141.644" y2="57.2191" gradientUnits="userSpaceOnUse">
<stop stop-color="#DFF2FC"/>
<stop offset="1" stop-color="#BAE3F9"/>
</linearGradient>
<linearGradient id="paint6_linear_771_372" x1="134.669" y1="64.1782" x2="138.052" y2="64.1782" gradientUnits="userSpaceOnUse">
<stop stop-color="#DFF2FC"/>
<stop offset="1" stop-color="#BAE3F9"/>
</linearGradient>
<radialGradient id="paint7_radial_771_372" cx="0" cy="0" r="1" gradientUnits="userSpaceOnUse" gradientTransform="translate(136.093 55.1471) scale(5.24577 5.24312)">
<stop stop-color="white"/>
<stop offset="0.5" stop-color="#7ECEF4"/>
<stop offset="0.9" stop-color="#0075C2"/>
<stop offset="1" stop-color="#0081CC"/>
</radialGradient>
<radialGradient id="paint8_radial_771_372" cx="0" cy="0" r="1" gradientUnits="userSpaceOnUse" gradientTransform="translate(135.589 63.253) scale(1.78172 1.78082)">
<stop stop-color="white"/>
<stop offset="0.5" stop-color="#7ECEF4"/>
<stop offset="0.9" stop-color="#0075C2"/>
<stop offset="1" stop-color="#0081CC"/>
</radialGradient>
<linearGradient id="paint9_linear_771_372" x1="171.011" y1="103.143" x2="186.476" y2="103.143" gradientUnits="userSpaceOnUse">
<stop stop-color="#00A4E9"/>
<stop offset="0.4" stop-color="#00A4E9"/>
<stop offset="1" stop-color="#009DDA"/>
</linearGradient>
<linearGradient id="paint10_linear_771_372" x1="187.334" y1="98.7619" x2="208.268" y2="98.7619" gradientUnits="userSpaceOnUse">
<stop stop-color="#E6881B"/>
<stop offset="1" stop-color="#FCD400"/>
</linearGradient>
<linearGradient id="paint11_linear_771_372" x1="180.423" y1="102.879" x2="192.256" y2="102.879" gradientUnits="userSpaceOnUse">
<stop stop-color="#00A4E9"/>
<stop offset="0.4" stop-color="#00A4E9"/>
<stop offset="1" stop-color="#009DDA"/>
</linearGradient>
<clipPath id="clip0_771_372">
<rect width="92" height="68" fill="white" transform="translate(81)"/>
</clipPath>
<clipPath id="clip1_771_372">
<rect width="253" height="60" fill="white" transform="translate(0 82)"/>
</clipPath>
</defs>
</svg>
