<svg width="24" height="24" viewBox="0 0 24 24" fill="none" xmlns="http://www.w3.org/2000/svg">
<path d="M14.7334 12C14.7334 13.5096 13.5096 14.7334 12 14.7334C10.4904 14.7334 9.26669 13.5096 9.26669 12C9.26669 10.4904 10.4904 9.26669 12 9.26669C13.5096 9.26669 14.7334 10.4904 14.7334 12Z" stroke="#2D2D2D" stroke-width="1.2" stroke-linecap="round" stroke-linejoin="round"/>
<path d="M15.5994 17.78L15.5994 17.78C15.8366 17.9928 16.1989 17.9829 16.4242 17.7576L17.7576 16.4242C17.9784 16.2034 17.9929 15.8502 17.791 15.612L17.0383 14.7242L17.516 13.5708L18.8177 13.2321C19.082 13.1633 19.2666 12.9246 19.2666 12.6515L19.2666 11.3333C19.2667 11.0589 19.0805 10.8195 18.8145 10.7518L17.5209 10.4229L17.044 9.2714L17.7915 8.38738C17.9929 8.14915 17.9782 7.79631 17.7576 7.57572L16.4242 6.24238C16.2028 6.02093 15.8483 6.00705 15.6102 6.21051L14.7321 6.96088L13.5429 6.47183L13.2038 5.18087C13.1346 4.91716 12.8962 4.73331 12.6235 4.73331H11.3206C11.0481 4.73331 10.8098 4.91703 10.7404 5.18061L10.3943 6.49586L9.25209 6.97733L8.39873 6.21832C8.1613 6.00714 7.8004 6.01769 7.57572 6.24238L6.24238 7.57572C6.02497 7.79312 6.00709 8.13969 6.20097 8.37832L6.94602 9.29535L6.47619 10.4505L5.19695 10.749C4.92541 10.8124 4.73331 11.0545 4.73331 11.3333V12.6666C4.73331 12.9372 4.91433 13.1742 5.1753 13.2455L6.49452 13.6056L6.977 14.7502L6.21877 15.6007C6.00715 15.8381 6.01751 16.1994 6.24238 16.4242L7.57572 17.7576C7.79337 17.9752 8.14041 17.9929 8.37902 17.7984L9.2962 17.051L10.4236 17.5148L10.7516 18.8136C10.8189 19.08 11.0585 19.2666 11.3333 19.2666H12.6666C12.9413 19.2666 13.1809 19.0802 13.2483 18.814L13.5774 17.5146L14.7405 17.0329C14.8587 17.1314 14.9976 17.2505 15.1349 17.37C15.26 17.479 15.3764 17.5816 15.4615 17.6571L15.5625 17.7471L15.5901 17.7716L15.5971 17.778L15.5989 17.7795L15.5993 17.7799L15.5994 17.78Z" stroke="#2D2D2D" stroke-width="1.2" stroke-linecap="round" stroke-linejoin="round"/>
</svg>
